<svg width="188" height="188" viewBox="0 0 188 188" fill="none" xmlns="http://www.w3.org/2000/svg">
<g filter="url(#filter0_d_84_74)">
<circle cx="94" cy="90" r="90" fill="white"/>
<circle cx="94" cy="90" r="88" stroke="#5E5C5C" stroke-width="4"/>
</g>
<g filter="url(#filter1_d_84_74)">
<rect width="19.8346" height="7.43799" rx="2.5" transform="matrix(0.570402 -0.821366 0.570402 0.821366 121 66.2916)" fill="#5E5C5C"/>
<rect width="19.8346" height="7.43799" rx="2.5" transform="matrix(-0.570402 -0.821366 0.570402 -0.821366 132.314 83.9208)" fill="#5E5C5C"/>
<rect width="19.8346" height="7.43799" rx="2.5" transform="matrix(0.570402 -0.821366 0.570402 0.821366 121 89.3312)" fill="#5E5C5C"/>
<rect width="19.8346" height="7.43799" rx="2.5" transform="matrix(-0.570402 -0.821366 0.570402 -0.821366 132.314 106.96)" fill="#5E5C5C"/>
<rect width="19.8346" height="7.43799" rx="2.5" transform="matrix(0.570402 -0.821366 0.570402 0.821366 121 112.371)" fill="#5E5C5C"/>
<rect width="19.8346" height="7.43799" rx="2.5" transform="matrix(-0.570402 -0.821366 0.570402 -0.821366 132.314 130)" fill="#5E5C5C"/>
<path d="M116 50.3968V129.23C116 131.821 114.487 134.171 112.114 135.23C111.071 135.815 110.307 136 109.4 136C107.814 136 106.249 135.428 105.013 134.334L77.1899 109.662H59.9C54.4323 109.662 50 105.24 50 99.9697V80.0287C50 74.5735 54.4323 70.3366 59.9 70.3366H77.192L105.015 45.6639C106.958 43.9406 109.744 43.5136 112.116 44.5818C114.494 45.273 116 47.8061 116 50.3968Z" fill="#5E5C5C"/>
</g>
<defs>
<filter id="filter0_d_84_74" x="0" y="0" width="188" height="188" filterUnits="userSpaceOnUse" color-interpolation-filters="sRGB">
<feFlood flood-opacity="0" result="BackgroundImageFix"/>
<feColorMatrix in="SourceAlpha" type="matrix" values="0 0 0 0 0 0 0 0 0 0 0 0 0 0 0 0 0 0 127 0" result="hardAlpha"/>
<feOffset dy="4"/>
<feGaussianBlur stdDeviation="2"/>
<feComposite in2="hardAlpha" operator="out"/>
<feColorMatrix type="matrix" values="0 0 0 0 0 0 0 0 0 0 0 0 0 0 0 0 0 0 0.25 0"/>
<feBlend mode="normal" in2="BackgroundImageFix" result="effect1_dropShadow_84_74"/>
<feBlend mode="normal" in="SourceGraphic" in2="effect1_dropShadow_84_74" result="shape"/>
</filter>
<filter id="filter1_d_84_74" x="50" y="44" width="94.721" height="106" filterUnits="userSpaceOnUse" color-interpolation-filters="sRGB">
<feFlood flood-opacity="0" result="BackgroundImageFix"/>
<feColorMatrix in="SourceAlpha" type="matrix" values="0 0 0 0 0 0 0 0 0 0 0 0 0 0 0 0 0 0 127 0" result="hardAlpha"/>
<feOffset dx="5" dy="10"/>
<feGaussianBlur stdDeviation="2"/>
<feComposite in2="hardAlpha" operator="out"/>
<feColorMatrix type="matrix" values="0 0 0 0 0.216667 0 0 0 0 0.216667 0 0 0 0 0.216667 0 0 0 0.2 0"/>
<feBlend mode="normal" in2="BackgroundImageFix" result="effect1_dropShadow_84_74"/>
<feBlend mode="normal" in="SourceGraphic" in2="effect1_dropShadow_84_74" result="shape"/>
</filter>
</defs>
</svg>
