<svg width="188" height="188" viewBox="0 0 188 188" fill="none" xmlns="http://www.w3.org/2000/svg">
<g filter="url(#filter0_d_53_17)">
<circle cx="94" cy="90" r="90" fill="white"/>
<circle cx="94" cy="90" r="88" stroke="#373737" stroke-width="4"/>
</g>
<g filter="url(#filter1_d_53_17)">
<rect x="57.8694" y="46.3834" width="118.978" height="8.30082" rx="2.5" transform="rotate(45 57.8694 46.3834)" fill="#373737"/>
<path d="M125 50.3968V129.23C125 131.821 123.487 134.171 121.114 135.23C120.071 135.815 119.307 136 118.4 136C116.814 136 115.249 135.428 114.013 134.334L86.1899 109.662H68.9C63.4323 109.662 59 105.24 59 99.9697V80.0287C59 74.5735 63.4323 70.3366 68.9 70.3366H86.192L114.015 45.6639C115.958 43.9406 118.744 43.5136 121.116 44.5818C123.494 45.273 125 47.8061 125 50.3968Z" fill="#373737"/>
</g>
<defs>
<filter id="filter0_d_53_17" x="0" y="0" width="188" height="188" filterUnits="userSpaceOnUse" color-interpolation-filters="sRGB">
<feFlood flood-opacity="0" result="BackgroundImageFix"/>
<feColorMatrix in="SourceAlpha" type="matrix" values="0 0 0 0 0 0 0 0 0 0 0 0 0 0 0 0 0 0 127 0" result="hardAlpha"/>
<feOffset dy="4"/>
<feGaussianBlur stdDeviation="2"/>
<feComposite in2="hardAlpha" operator="out"/>
<feColorMatrix type="matrix" values="0 0 0 0 0 0 0 0 0 0 0 0 0 0 0 0 0 0 0.25 0"/>
<feBlend mode="normal" in2="BackgroundImageFix" result="effect1_dropShadow_53_17"/>
<feBlend mode="normal" in="SourceGraphic" in2="effect1_dropShadow_53_17" result="shape"/>
</filter>
<filter id="filter1_d_53_17" x="53.0354" y="44" width="96.9289" height="106" filterUnits="userSpaceOnUse" color-interpolation-filters="sRGB">
<feFlood flood-opacity="0" result="BackgroundImageFix"/>
<feColorMatrix in="SourceAlpha" type="matrix" values="0 0 0 0 0 0 0 0 0 0 0 0 0 0 0 0 0 0 127 0" result="hardAlpha"/>
<feOffset dx="5" dy="10"/>
<feGaussianBlur stdDeviation="2"/>
<feComposite in2="hardAlpha" operator="out"/>
<feColorMatrix type="matrix" values="0 0 0 0 0.216667 0 0 0 0 0.216667 0 0 0 0 0.216667 0 0 0 0.2 0"/>
<feBlend mode="normal" in2="BackgroundImageFix" result="effect1_dropShadow_53_17"/>
<feBlend mode="normal" in="SourceGraphic" in2="effect1_dropShadow_53_17" result="shape"/>
</filter>
</defs>
</svg>
