<svg width="300" height="300" viewBox="0 0 300 300" fill="none" xmlns="http://www.w3.org/2000/svg">
<rect x="19.2095" width="396" height="24" rx="9.5" transform="rotate(45 19.2095 0)" fill="white"/>
<path d="M216.488 1.90147C213.468 0.632504 210.215 -0.000976562 207.029 -0.000976562C201.497 -0.000976562 196.039 1.8633 191.741 5.42312L94.7313 85.7138H34.5C15.4459 85.7138 0 100.104 0 117.254V180.937C0 198.689 15.4459 212.477 34.5 212.477H94.76L191.719 292.767C196.003 298.124 201.466 299.999 207 299.999C210.19 299.999 213.439 299.375 216.459 298.099C224.753 294.642 230 287.008 230 278.571V21.4282C230 12.9974 224.753 4.75415 216.488 1.90147ZM206.353 277.968L102.853 192.254H34.5C28.1592 192.254 23 187.459 23 181.566V117.281C23 111.387 28.1592 106.593 34.5 106.593H102.853L205.706 21.4818C205.712 21.4766 205.703 21.4844 205.706 21.4818L206.353 277.968Z" fill="white"/>
</svg>
